<?xml version="1.0" standalone="no"?>
<!DOCTYPE svg PUBLIC "-//W3C//DTD SVG 20010904//EN"
 "http://www.w3.org/TR/2001/REC-SVG-20010904/DTD/svg10.dtd">
<svg version="1.0" xmlns="http://www.w3.org/2000/svg"
 width="1200.000000pt" height="1000.000000pt" viewBox="0 0 1200.000000 1000.000000"
 preserveAspectRatio="xMidYMid meet">

<g transform="translate(0.000000,1000.000000) scale(0.100000,-0.100000)"
fill="#000000" stroke="none">
<path d="M6090 6620 c-477 -6 -452 -3 -582 -72 -123 -65 -229 -206 -263 -349
-66 -281 78 -549 352 -656 64 -25 80 -27 275 -31 l207 -4 -114 282 c-63 156
-115 284 -115 286 0 2 254 4 565 4 l565 0 0 275 0 275 -227 -2 c-126 -1 -424
-5 -663 -8z"/>
<path d="M6209 5974 c10 -27 60 -152 111 -279 51 -126 95 -236 98 -244 4 -12
-81 -13 -564 -10 l-569 4 -3 -273 -2 -273 652 3 653 3 75 27 c223 82 360 263
376 498 7 103 -12 195 -58 284 -43 81 -156 195 -233 233 -110 56 -154 64 -363
70 l-193 6 20 -49z"/>
<path d="M8105 4516 c-249 -43 -355 -160 -343 -380 9 -174 90 -268 274 -317
65 -18 108 -22 239 -22 225 -1 337 29 428 112 70 65 92 124 92 251 0 88 -4
113 -23 155 -64 140 -200 202 -457 210 -83 3 -159 -1 -210 -9z m389 -201 c65
-33 81 -64 81 -155 0 -91 -16 -122 -81 -155 -35 -18 -59 -20 -214 -20 -155 0
-179 2 -214 20 -53 27 -78 63 -84 124 -6 69 4 115 34 151 41 49 96 60 279 57
137 -2 166 -5 199 -22z"/>
<path d="M3585 4510 c-142 -29 -200 -96 -193 -224 4 -90 29 -128 107 -165 55
-26 59 -26 324 -29 260 -4 267 -4 282 -25 19 -28 19 -33 -5 -57 -19 -19 -33
-20 -370 -20 l-350 0 0 -91 0 -90 393 3 c390 3 392 3 440 27 147 73 160 291
22 361 -48 25 -55 25 -326 30 -295 5 -309 8 -309 56 0 13 9 28 19 34 13 6 146
10 365 10 l346 0 0 95 0 95 -352 -1 c-194 -1 -371 -5 -393 -9z"/>
<path d="M4662 4166 c-139 -195 -252 -358 -252 -361 0 -3 58 -5 128 -5 l128 0
164 235 c91 129 167 234 170 235 3 0 77 -106 164 -235 l159 -235 134 0 c124 0
133 1 124 18 -5 9 -115 170 -243 357 l-234 340 -95 3 -95 3 -252 -355z"/>
<path d="M5959 4509 c-125 -18 -222 -75 -283 -167 -126 -190 -23 -436 215
-514 58 -19 92 -22 362 -26 l297 -4 0 96 0 96 -271 0 c-183 0 -285 4 -312 12
-86 26 -139 115 -117 197 13 48 74 106 127 120 22 7 148 11 306 11 l267 0 0
95 0 95 -267 -1 c-148 -1 -293 -5 -324 -10z"/>
<path d="M7025 4509 c-214 -36 -350 -189 -331 -372 15 -148 109 -257 269 -310
56 -19 92 -21 360 -25 l297 -4 0 96 0 96 -272 0 c-157 0 -289 5 -310 10 -52
15 -94 53 -113 105 -22 57 -14 105 28 152 61 69 78 73 390 73 l277 0 0 95 0
95 -272 -1 c-150 -1 -295 -5 -323 -10z"/>
<path d="M3390 3515 l0 -137 140 4 c130 3 141 5 162 26 20 20 23 32 23 107 0
75 -3 87 -23 107 -21 21 -32 23 -162 26 l-140 4 0 -137z m291 83 c6 -12 12
-49 12 -83 0 -104 -2 -105 -148 -105 l-125 0 0 105 0 105 125 0 c117 0 125 -1
136 -22z"/>
<path d="M3890 3515 l0 -135 135 0 c113 0 135 2 135 15 0 13 -20 15 -120 15
l-120 0 0 55 0 55 115 0 c70 0 115 4 115 10 0 6 -45 10 -115 10 l-115 0 0 40
0 40 115 0 c96 0 115 3 115 15 0 13 -21 15 -130 15 l-130 0 0 -135z"/>
<path d="M4302 3642 c2 -4 35 -65 73 -135 54 -97 75 -127 90 -127 15 0 37 31
90 127 84 152 80 143 63 143 -7 0 -43 -53 -79 -117 -36 -64 -69 -118 -75 -120
-5 -1 -38 51 -73 117 -36 68 -70 120 -78 120 -8 0 -13 -4 -11 -8z"/>
<path d="M4760 3515 l0 -135 135 0 c113 0 135 2 135 15 0 13 -20 15 -120 15
l-120 0 0 55 0 55 115 0 c70 0 115 4 115 10 0 6 -45 10 -115 10 l-115 0 0 40
0 40 115 0 c96 0 115 3 115 15 0 13 -21 15 -130 15 l-130 0 0 -135z"/>
<path d="M5190 3515 l0 -135 120 0 c100 0 120 3 120 15 0 12 -18 15 -105 15
l-105 0 0 120 c0 100 -2 120 -15 120 -13 0 -15 -22 -15 -135z"/>
<path d="M5625 3640 c-39 -15 -49 -39 -49 -113 -2 -135 12 -147 163 -147 127
0 157 10 171 58 13 47 13 107 0 154 -9 31 -17 39 -48 48 -44 12 -208 12 -237
0z m255 -29 c5 -11 10 -53 10 -95 0 -104 -3 -106 -143 -106 -62 0 -119 5 -127
10 -12 7 -15 30 -15 100 0 70 3 93 15 100 8 5 68 10 132 10 106 0 118 -2 128
-19z"/>
<path d="M6090 3515 c0 -113 2 -135 15 -135 12 0 15 13 15 55 l0 55 108 0
c142 0 157 8 157 80 0 73 -14 80 -172 80 l-123 0 0 -135z m270 80 c6 -16 6
-34 0 -50 -9 -25 -11 -25 -125 -25 l-115 0 0 50 0 50 115 0 c114 0 116 0 125
-25z"/>
<path d="M6540 3515 c0 -112 2 -135 15 -135 12 0 15 23 17 124 l3 124 85 -124
c47 -68 90 -124 95 -124 6 0 49 57 98 127 l87 127 0 -127 c0 -106 2 -127 15
-127 13 0 15 22 15 135 0 134 0 135 -23 135 -18 0 -41 -26 -106 -120 -46 -67
-87 -117 -91 -113 -4 4 -42 59 -84 121 -63 91 -82 112 -102 112 l-24 0 0 -135z"/>
<path d="M7150 3515 l0 -135 135 0 c113 0 135 2 135 15 0 13 -20 15 -120 15
l-120 0 0 55 0 55 115 0 c70 0 115 4 115 10 0 6 -45 10 -115 10 l-115 0 0 40
0 40 115 0 c96 0 115 3 115 15 0 13 -21 15 -130 15 l-130 0 0 -135z"/>
<path d="M7580 3516 c0 -114 2 -136 15 -136 13 0 15 21 15 127 l0 128 128
-128 c87 -87 134 -127 150 -127 22 0 22 2 22 135 0 83 -4 135 -10 135 -6 0
-10 -49 -10 -126 l0 -126 -131 124 c-79 74 -140 124 -155 126 l-24 3 0 -135z"/>
<path d="M8050 3635 c0 -12 14 -15 70 -15 l70 0 0 -120 c0 -73 4 -120 10 -120
6 0 10 47 10 120 l0 120 70 0 c56 0 70 3 70 15 0 13 -23 15 -150 15 -127 0
-150 -2 -150 -15z"/>
<path d="M8540 3639 c-32 -13 -40 -26 -40 -71 0 -51 22 -61 155 -67 l110 -6 3
-28 c6 -50 -10 -57 -125 -57 l-104 0 -13 31 c-15 36 -32 23 -22 -17 9 -34 42
-44 147 -44 119 0 149 15 149 76 0 55 -27 68 -148 72 -83 3 -110 7 -119 20
-18 22 -16 39 7 62 17 17 33 20 115 20 92 0 96 -1 107 -25 14 -31 31 -33 26
-3 -2 12 -14 28 -28 35 -30 15 -184 16 -220 2z"/>
</g>
</svg>
